<?xml version="1.0" encoding="utf-8"?>
<svg id="master-artboard" viewBox="0 0 1125.319091796875 66.62702941894531" xmlns="http://www.w3.org/2000/svg" width="1125.319091796875px" height="66.62702941894531px" version="1.1" style="shape-rendering:geometricPrecision; text-rendering:geometricPrecision; image-rendering:optimizeQuality; fill-rule:evenodd; clip-rule:evenodd"><rect id="ee-background" x="0" y="0" width="1125.319091796875" height="66.62702941894531" style="fill: white; fill-opacity: 0; pointer-events: none;"/><defs><style id="ee-google-fonts">@import url(https://fonts.googleapis.com/css?family=Rubik+Mono+One:400);</style></defs><path d="M 176.2396697998047 492.920654296875 L 208.669677734375 492.920654296875 C 209.36300659179688 492.920654296875 209.9630126953125 493.1739807128906 210.46966552734375 493.6806335449219 C 210.97634887695312 494.18731689453125 211.22967529296875 494.7906494140625 211.22967529296875 495.4906311035156 L 211.22967529296875 509.84063720703125 C 211.22967529296875 510.5406494140625 210.97634887695312 511.14398193359375 210.46966552734375 511.650634765625 C 209.9630126953125 512.1572875976562 209.36300659179688 512.41064453125 208.669677734375 512.41064453125 L 153.13967895507812 512.41064453125 C 152.43966674804688 512.41064453125 151.83633422851562 512.1572875976562 151.32968139648438 511.650634765625 C 150.82301330566406 511.14398193359375 150.56967163085938 510.5406494140625 150.56967163085938 509.84063720703125 L 150.56967163085938 448.420654296875 C 150.56967163085938 447.727294921875 150.82301330566406 447.12396240234375 151.32968139648438 446.61065673828125 C 151.83633422851562 446.1039733886719 152.43966674804688 445.85064697265625 153.13967895507812 445.85064697265625 L 173.67967224121094 445.85064697265625 C 174.37301635742188 445.85064697265625 174.97300720214844 446.1039733886719 175.47967529296875 446.61065673828125 C 175.98634338378906 447.12396240234375 176.2396697998047 447.727294921875 176.2396697998047 448.420654296875 L 176.2396697998047 492.920654296875 ZM 278.8221740722656 506.420654296875 C 278.8221740722656 506.420654296875 277.2621765136719 507.5773010253906 274.1421813964844 509.8906555175781 C 271.0155029296875 512.2039794921875 264.12884521484375 513.3606567382812 253.482177734375 513.3606567382812 C 242.83551025390625 513.3606567382812 234.3888397216797 511.04730224609375 228.14218139648438 506.420654296875 C 221.8955078125 501.7939758300781 218.7721710205078 494.56732177734375 218.7721710205078 484.7406311035156 L 218.7721710205078 448.420654296875 C 218.7721710205078 447.727294921875 219.02883911132812 447.12396240234375 219.54217529296875 446.61065673828125 C 220.04884338378906 446.1039733886719 220.64883422851562 445.85064697265625 221.34217834472656 445.85064697265625 L 241.21217346191406 445.85064697265625 C 241.91217041015625 445.85064697265625 242.5155029296875 446.1039733886719 243.0221710205078 446.61065673828125 C 243.52883911132812 447.12396240234375 243.78216552734375 447.727294921875 243.78216552734375 448.420654296875 L 243.78216552734375 486.2606506347656 C 243.78216552734375 488.86065673828125 244.65550231933594 490.8572998046875 246.4021759033203 492.2506408691406 C 248.14218139648438 493.64398193359375 250.50216674804688 494.34063720703125 253.482177734375 494.34063720703125 C 256.462158203125 494.34063720703125 258.8221740722656 493.64398193359375 260.5621643066406 492.2506408691406 C 262.308837890625 490.8572998046875 263.18218994140625 488.86065673828125 263.18218994140625 486.2606506347656 L 263.18218994140625 448.420654296875 C 263.18218994140625 447.727294921875 263.4355163574219 447.12396240234375 263.9421691894531 446.61065673828125 C 264.4488525390625 446.1039733886719 265.048828125 445.85064697265625 265.7421875 445.85064697265625 L 285.6221923828125 445.85064697265625 C 286.31549072265625 445.85064697265625 286.9154968261719 446.1039733886719 287.42218017578125 446.61065673828125 C 287.9288330078125 447.12396240234375 288.18218994140625 447.727294921875 288.18218994140625 448.420654296875 L 288.18218994140625 484.7406311035156 C 288.18218994140625 494.56732177734375 285.0621643066406 501.7939758300781 278.8221740722656 506.420654296875 ZM 320.544677734375 471.5306396484375 L 320.544677734375 486.7406311035156 C 320.544677734375 489.34063720703125 321.4179992675781 491.3373107910156 323.1646728515625 492.73065185546875 C 324.9046630859375 494.12396240234375 327.1846618652344 494.8206481933594 330.0046691894531 494.8206481933594 C 332.8246765136719 494.8206481933594 334.8680114746094 494.3773193359375 336.1346740722656 493.4906311035156 C 337.40802001953125 492.6039733886719 338.4713439941406 491.3039855957031 339.3246765136719 489.59063720703125 C 340.1780090332031 487.8773193359375 341.3046875 487.0206298828125 342.7046813964844 487.0206298828125 L 363.23468017578125 487.0206298828125 C 363.8080139160156 487.0206298828125 364.30133056640625 487.2273254394531 364.71466064453125 487.6406555175781 C 365.121337890625 488.0539855957031 365.3246765136719 488.54730224609375 365.3246765136719 489.1206359863281 C 365.3246765136719 495.01397705078125 362.53802490234375 500.400634765625 356.96466064453125 505.2806396484375 C 354.17132568359375 507.68731689453125 350.4613342285156 509.6372985839844 345.8346862792969 511.1306457519531 C 341.2080078125 512.6173095703125 335.75799560546875 513.3606567382812 329.48468017578125 513.3606567382812 C 323.2113342285156 513.3606567382812 317.4913330078125 512.3939819335938 312.3246765136719 510.46063232421875 C 307.15802001953125 508.5273132324219 302.9580078125 505.3572998046875 299.72467041015625 500.9506530761719 C 296.4913330078125 496.5439758300781 294.8746643066406 491.1406555175781 294.8746643066406 484.7406311035156 L 294.8746643066406 473.5206298828125 C 294.8746643066406 467.1206359863281 296.4913330078125 461.7006530761719 299.72467041015625 457.2606506347656 C 305.81134033203125 449.0206298828125 315.98468017578125 444.900634765625 330.24468994140625 444.900634765625 C 336.0113525390625 444.900634765625 341.2080078125 445.6473083496094 345.8346862792969 447.1406555175781 C 350.4613342285156 448.6273193359375 354.17132568359375 450.5773010253906 356.96466064453125 452.99066162109375 C 362.53802490234375 457.8706359863281 365.3246765136719 463.25732421875 365.3246765136719 469.150634765625 C 365.3246765136719 469.7173156738281 365.121337890625 470.2073059082031 364.71466064453125 470.6206359863281 C 364.30133056640625 471.0339660644531 363.8080139160156 471.24066162109375 363.23468017578125 471.24066162109375 L 342.7046813964844 471.24066162109375 C 341.3046875 471.24066162109375 340.1780090332031 470.38397216796875 339.3246765136719 468.670654296875 C 338.4713439941406 466.9639892578125 337.40802001953125 465.6639709472656 336.1346740722656 464.7706298828125 C 334.8680114746094 463.88397216796875 332.8246765136719 463.4406433105469 330.0046691894531 463.4406433105469 C 327.1846618652344 463.4406433105469 324.9046630859375 464.1406555175781 323.1646728515625 465.5406494140625 C 321.4179992675781 466.9339904785156 320.544677734375 468.9306335449219 320.544677734375 471.5306396484375 ZM 387.1528015136719 512.41064453125 L 369.18280029296875 512.41064453125 C 368.6094665527344 512.41064453125 368.1194763183594 512.2039794921875 367.7127990722656 511.7906494140625 C 367.2994689941406 511.3773193359375 367.0928039550781 510.98065185546875 367.0928039550781 510.60064697265625 C 367.0928039550781 510.22064208984375 367.122802734375 509.93731689453125 367.18280029296875 509.7506408691406 L 387.9128112792969 448.99066162109375 C 388.48614501953125 446.8973083496094 389.9128112792969 445.85064697265625 392.19281005859375 445.85064697265625 L 418.622802734375 445.85064697265625 C 420.9028015136719 445.85064697265625 422.3294677734375 446.8973083496094 422.9028015136719 448.99066162109375 L 443.6328125 509.7506408691406 C 443.69281005859375 509.93731689453125 443.7228088378906 510.22064208984375 443.7228088378906 510.60064697265625 C 443.7228088378906 510.98065185546875 443.5161437988281 511.3773193359375 443.102783203125 511.7906494140625 C 442.6961364746094 512.2039794921875 442.20611572265625 512.41064453125 441.6328125 512.41064453125 L 423.6628112792969 512.41064453125 C 421.6361389160156 512.41064453125 420.20947265625 511.333984375 419.3828125 509.1806335449219 L 417.0028076171875 502.5206298828125 L 393.80279541015625 502.5206298828125 L 391.43280029296875 509.1806335449219 C 390.60614013671875 511.333984375 389.1794738769531 512.41064453125 387.1528015136719 512.41064453125 M 412.1528015136719 483.98065185546875 L 405.4028015136719 464.2006530761719 L 398.6528015136719 483.98065185546875 L 412.1528015136719 483.98065185546875 ZM 486.165283203125 470.0006408691406 C 496.5586242675781 471.2073059082031 503.9586181640625 473.4439697265625 508.36529541015625 476.71063232421875 C 512.77197265625 479.97064208984375 514.9752807617188 484.8673095703125 514.9752807617188 491.400634765625 C 514.9752807617188 497.92730712890625 511.77197265625 503.22064208984375 505.36529541015625 507.2806396484375 C 498.9653015136719 511.333984375 490.4719543457031 513.3606567382812 479.88531494140625 513.3606567382812 C 469.29864501953125 513.3606567382812 461.0752868652344 511.41064453125 455.2153015136719 507.5106506347656 C 449.3486328125 503.6173095703125 446.4153137207031 498.81732177734375 446.4153137207031 493.11065673828125 C 446.4153137207031 491.7173156738281 447.1452941894531 491.0206298828125 448.60528564453125 491.0206298828125 L 468.0953063964844 491.0206298828125 C 469.4286193847656 491.0206298828125 470.5086364746094 491.4306335449219 471.3352966308594 492.2506408691406 C 473.108642578125 493.9639892578125 476.1819763183594 494.8206481933594 480.5552978515625 494.8206481933594 C 486.5752868652344 494.8206481933594 489.5852966308594 493.900634765625 489.5852966308594 492.0606384277344 C 489.5852966308594 490.920654296875 488.63531494140625 490.0173034667969 486.73529052734375 489.35064697265625 C 484.8352966308594 488.6839904785156 481.06195068359375 488.0339660644531 475.415283203125 487.400634765625 C 457.4819641113281 485.247314453125 448.5152893066406 478.3706359863281 448.5152893066406 466.7706298828125 C 448.5152893066406 460.2439880371094 451.39862060546875 454.9673156738281 457.165283203125 450.9406433105469 C 462.9319763183594 446.9139709472656 470.64862060546875 444.900634765625 480.3153076171875 444.900634765625 C 489.9819641113281 444.900634765625 497.7952880859375 447.0106506347656 503.75531005859375 451.23065185546875 C 509.7153015136719 455.4439697265625 512.6953125 459.89398193359375 512.6953125 464.58062744140625 C 512.6953125 465.22064208984375 512.4886474609375 465.73065185546875 512.0753173828125 466.11065673828125 C 511.6619567871094 466.49066162109375 511.10528564453125 466.6806335449219 510.4053039550781 466.6806335449219 L 489.9653015136719 466.6806335449219 C 488.8252868652344 466.6806335449219 487.84197998046875 466.3006591796875 487.0152893066406 465.5406494140625 C 485.49530029296875 464.1406555175781 483.2153015136719 463.4406433105469 480.17529296875 463.4406433105469 C 475.9286193847656 463.4406433105469 473.8052978515625 464.33062744140625 473.8052978515625 466.11065673828125 C 473.8052978515625 467.05731201171875 474.6286315917969 467.8006591796875 476.2752990722656 468.34063720703125 C 477.9219665527344 468.8806457519531 481.2186279296875 469.4339904785156 486.165283203125 470.0006408691406 ZM 547.9977416992188 471.5306396484375 L 547.9977416992188 486.7406311035156 C 547.9977416992188 489.34063720703125 548.87109375 491.3373107910156 550.6177978515625 492.73065185546875 C 552.3577880859375 494.12396240234375 554.6377563476562 494.8206481933594 557.457763671875 494.8206481933594 C 560.2777709960938 494.8206481933594 562.3211059570312 494.3773193359375 563.5877685546875 493.4906311035156 C 564.861083984375 492.6039733886719 565.9244384765625 491.3039855957031 566.7777709960938 489.59063720703125 C 567.631103515625 487.8773193359375 568.7577514648438 487.0206298828125 570.1577758789062 487.0206298828125 L 590.687744140625 487.0206298828125 C 591.2611083984375 487.0206298828125 591.7544555664062 487.2273254394531 592.1677856445312 487.6406555175781 C 592.574462890625 488.0539855957031 592.7777709960938 488.54730224609375 592.7777709960938 489.1206359863281 C 592.7777709960938 495.01397705078125 589.9910888671875 500.400634765625 584.4177856445312 505.2806396484375 C 581.6244506835938 507.68731689453125 577.9144287109375 509.6372985839844 573.2877807617188 511.1306457519531 C 568.6611328125 512.6173095703125 563.2111206054688 513.3606567382812 556.937744140625 513.3606567382812 C 550.6644287109375 513.3606567382812 544.9444580078125 512.3939819335938 539.7777709960938 510.46063232421875 C 534.611083984375 508.5273132324219 530.4111328125 505.3572998046875 527.1777954101562 500.9506530761719 C 523.9444580078125 496.5439758300781 522.3277587890625 491.1406555175781 522.3277587890625 484.7406311035156 L 522.3277587890625 473.5206298828125 C 522.3277587890625 467.1206359863281 523.9444580078125 461.7006530761719 527.1777954101562 457.2606506347656 C 533.264404296875 449.0206298828125 543.437744140625 444.900634765625 557.69775390625 444.900634765625 C 563.4644165039062 444.900634765625 568.6611328125 445.6473083496094 573.2877807617188 447.1406555175781 C 577.9144287109375 448.6273193359375 581.6244506835938 450.5773010253906 584.4177856445312 452.99066162109375 C 589.9910888671875 457.8706359863281 592.7777709960938 463.25732421875 592.7777709960938 469.150634765625 C 592.7777709960938 469.7173156738281 592.574462890625 470.2073059082031 592.1677856445312 470.6206359863281 C 591.7544555664062 471.0339660644531 591.2611083984375 471.24066162109375 590.687744140625 471.24066162109375 L 570.1577758789062 471.24066162109375 C 568.7577514648438 471.24066162109375 567.631103515625 470.38397216796875 566.7777709960938 468.670654296875 C 565.9244384765625 466.9639892578125 564.861083984375 465.6639709472656 563.5877685546875 464.7706298828125 C 562.3211059570312 463.88397216796875 560.2777709960938 463.4406433105469 557.457763671875 463.4406433105469 C 554.6377563476562 463.4406433105469 552.3577880859375 464.1406555175781 550.6177978515625 465.5406494140625 C 548.87109375 466.9339904785156 547.9977416992188 468.9306335449219 547.9977416992188 471.5306396484375 ZM 614.6058959960938 512.41064453125 L 596.6358642578125 512.41064453125 C 596.0625610351562 512.41064453125 595.5725708007812 512.2039794921875 595.1658935546875 511.7906494140625 C 594.7525634765625 511.3773193359375 594.5458984375 510.98065185546875 594.5458984375 510.60064697265625 C 594.5458984375 510.22064208984375 594.5758666992188 509.93731689453125 594.6358642578125 509.7506408691406 L 615.3659057617188 448.99066162109375 C 615.939208984375 446.8973083496094 617.3659057617188 445.85064697265625 619.6458740234375 445.85064697265625 L 646.0758666992188 445.85064697265625 C 648.3558959960938 445.85064697265625 649.7825317382812 446.8973083496094 650.3558959960938 448.99066162109375 L 671.0858764648438 509.7506408691406 C 671.1458740234375 509.93731689453125 671.1759033203125 510.22064208984375 671.1759033203125 510.60064697265625 C 671.1759033203125 510.98065185546875 670.96923828125 511.3773193359375 670.555908203125 511.7906494140625 C 670.1492309570312 512.2039794921875 669.6592407226562 512.41064453125 669.0858764648438 512.41064453125 L 651.1159057617188 512.41064453125 C 649.0892333984375 512.41064453125 647.6625366210938 511.333984375 646.8358764648438 509.1806335449219 L 644.4558715820312 502.5206298828125 L 621.2559204101562 502.5206298828125 L 618.8858642578125 509.1806335449219 C 618.0592041015625 511.333984375 616.632568359375 512.41064453125 614.6058959960938 512.41064453125 M 639.6058959960938 483.98065185546875 L 632.8558959960938 464.2006530761719 L 626.1058959960938 483.98065185546875 L 639.6058959960938 483.98065185546875 ZM 682.5283813476562 445.85064697265625 L 718.08837890625 445.85064697265625 C 727.08837890625 445.85064697265625 734.2183837890625 448.03729248046875 739.4783935546875 452.41064453125 C 744.7384033203125 456.7906494140625 747.368408203125 462.400634765625 747.368408203125 469.24066162109375 C 747.368408203125 476.0873107910156 745.1517333984375 481.52398681640625 740.7183837890625 485.5506591796875 C 736.2783813476562 489.5773010253906 728.7350463867188 491.59063720703125 718.08837890625 491.59063720703125 L 705.5383911132812 491.59063720703125 L 705.5383911132812 509.84063720703125 C 705.5383911132812 510.5406494140625 705.2850341796875 511.14398193359375 704.7783813476562 511.650634765625 C 704.271728515625 512.1572875976562 703.6683959960938 512.41064453125 702.9683837890625 512.41064453125 L 682.5283813476562 512.41064453125 C 681.828369140625 512.41064453125 681.2250366210938 512.1572875976562 680.7183837890625 511.650634765625 C 680.2117309570312 511.14398193359375 679.9583740234375 510.5406494140625 679.9583740234375 509.84063720703125 L 679.9583740234375 448.420654296875 C 679.9583740234375 447.727294921875 680.2117309570312 447.12396240234375 680.7183837890625 446.61065673828125 C 681.2250366210938 446.1039733886719 681.828369140625 445.85064697265625 682.5283813476562 445.85064697265625 M 705.62841796875 463.5406494140625 L 705.62841796875 474.0006408691406 L 717.7083740234375 474.0006408691406 C 719.1617431640625 474.0006408691406 720.348388671875 473.55731201171875 721.2683715820312 472.670654296875 C 722.1884155273438 471.7839660644531 722.6483764648438 470.54730224609375 722.6483764648438 468.96063232421875 C 722.6483764648438 467.37396240234375 722.205078125 466.073974609375 721.3184204101562 465.0606384277344 C 720.4317016601562 464.04730224609375 719.2283935546875 463.5406494140625 717.7083740234375 463.5406494140625 L 705.62841796875 463.5406494140625 ZM 814.3408813476562 465.35064697265625 L 797.1309204101562 465.35064697265625 L 797.1309204101562 492.920654296875 L 814.3408813476562 492.920654296875 C 815.0408935546875 492.920654296875 815.6442260742188 493.1739807128906 816.15087890625 493.6806335449219 C 816.6575927734375 494.18731689453125 816.910888671875 494.7906494140625 816.910888671875 495.4906311035156 L 816.910888671875 509.84063720703125 C 816.910888671875 510.5406494140625 816.6575927734375 511.14398193359375 816.15087890625 511.650634765625 C 815.6442260742188 512.1572875976562 815.0408935546875 512.41064453125 814.3408813476562 512.41064453125 L 754.0609130859375 512.41064453125 C 753.3609008789062 512.41064453125 752.757568359375 512.1572875976562 752.2509155273438 511.650634765625 C 751.7442016601562 511.14398193359375 751.4909057617188 510.5406494140625 751.4909057617188 509.84063720703125 L 751.4909057617188 495.4906311035156 C 751.4909057617188 494.7906494140625 751.7442016601562 494.18731689453125 752.2509155273438 493.6806335449219 C 752.757568359375 493.1739807128906 753.3609008789062 492.920654296875 754.0609130859375 492.920654296875 L 771.4608764648438 492.920654296875 L 771.4608764648438 465.35064697265625 L 754.0609130859375 465.35064697265625 C 753.3609008789062 465.35064697265625 752.757568359375 465.093994140625 752.2509155273438 464.58062744140625 C 751.7442016601562 464.073974609375 751.4909057617188 463.4739685058594 751.4909057617188 462.7806396484375 L 751.4909057617188 448.420654296875 C 751.4909057617188 447.727294921875 751.7442016601562 447.12396240234375 752.2509155273438 446.61065673828125 C 752.757568359375 446.1039733886719 753.3609008789062 445.85064697265625 754.0609130859375 445.85064697265625 L 814.3408813476562 445.85064697265625 C 815.0408935546875 445.85064697265625 815.6442260742188 446.1039733886719 816.15087890625 446.61065673828125 C 816.6575927734375 447.12396240234375 816.910888671875 447.727294921875 816.910888671875 448.420654296875 L 816.910888671875 462.7806396484375 C 816.910888671875 463.4739685058594 816.6575927734375 464.073974609375 816.15087890625 464.58062744140625 C 815.6442260742188 465.093994140625 815.0408935546875 465.35064697265625 814.3408813476562 465.35064697265625 ZM 865.259033203125 470.0006408691406 C 875.65234375 471.2073059082031 883.0523681640625 473.4439697265625 887.458984375 476.71063232421875 C 891.8656616210938 479.97064208984375 894.0690307617188 484.8673095703125 894.0690307617188 491.400634765625 C 894.0690307617188 497.92730712890625 890.8656616210938 503.22064208984375 884.458984375 507.2806396484375 C 878.0590209960938 511.333984375 869.565673828125 513.3606567382812 858.97900390625 513.3606567382812 C 848.392333984375 513.3606567382812 840.1690063476562 511.41064453125 834.3090209960938 507.5106506347656 C 828.4423828125 503.6173095703125 825.509033203125 498.81732177734375 825.509033203125 493.11065673828125 C 825.509033203125 491.7173156738281 826.239013671875 491.0206298828125 827.6990356445312 491.0206298828125 L 847.1890258789062 491.0206298828125 C 848.5223388671875 491.0206298828125 849.6023559570312 491.4306335449219 850.4290161132812 492.2506408691406 C 852.2023315429688 493.9639892578125 855.2756958007812 494.8206481933594 859.6490478515625 494.8206481933594 C 865.6690063476562 494.8206481933594 868.6790161132812 493.900634765625 868.6790161132812 492.0606384277344 C 868.6790161132812 490.920654296875 867.72900390625 490.0173034667969 865.8290405273438 489.35064697265625 C 863.9290161132812 488.6839904785156 860.1557006835938 488.0339660644531 854.509033203125 487.400634765625 C 836.57568359375 485.247314453125 827.6090087890625 478.3706359863281 827.6090087890625 466.7706298828125 C 827.6090087890625 460.2439880371094 830.4923706054688 454.9673156738281 836.259033203125 450.9406433105469 C 842.0256958007812 446.9139709472656 849.7423706054688 444.900634765625 859.4089965820312 444.900634765625 C 869.07568359375 444.900634765625 876.8890380859375 447.0106506347656 882.8489990234375 451.23065185546875 C 888.8090209960938 455.4439697265625 891.7890014648438 459.89398193359375 891.7890014648438 464.58062744140625 C 891.7890014648438 465.22064208984375 891.5823364257812 465.73065185546875 891.1690063476562 466.11065673828125 C 890.7556762695312 466.49066162109375 890.1990356445312 466.6806335449219 889.4990234375 466.6806335449219 L 869.0590209960938 466.6806335449219 C 867.9190063476562 466.6806335449219 866.9356689453125 466.3006591796875 866.1090087890625 465.5406494140625 C 864.5889892578125 464.1406555175781 862.3090209960938 463.4406433105469 859.26904296875 463.4406433105469 C 855.0223388671875 463.4406433105469 852.8990478515625 464.33062744140625 852.8990478515625 466.11065673828125 C 852.8990478515625 467.05731201171875 853.7223510742188 467.8006591796875 855.3690185546875 468.34063720703125 C 857.0156860351562 468.8806457519531 860.3123779296875 469.4339904785156 865.259033203125 470.0006408691406 ZM 903.04150390625 445.85064697265625 L 968.6415405273438 445.85064697265625 C 969.341552734375 445.85064697265625 969.94482421875 446.1039733886719 970.4515380859375 446.61065673828125 C 970.9581909179688 447.12396240234375 971.2115478515625 447.727294921875 971.2115478515625 448.420654296875 L 971.2115478515625 463.73065185546875 C 971.2115478515625 464.4239807128906 970.9581909179688 465.0273132324219 970.4515380859375 465.5406494140625 C 969.94482421875 466.04730224609375 969.341552734375 466.3006591796875 968.6415405273438 466.3006591796875 L 948.2015380859375 466.3006591796875 L 948.2015380859375 509.84063720703125 C 948.2015380859375 510.5406494140625 947.9481811523438 511.14398193359375 947.4415283203125 511.650634765625 C 946.9348754882812 512.1572875976562 946.33154296875 512.41064453125 945.6315307617188 512.41064453125 L 926.051513671875 512.41064453125 C 925.3515014648438 512.41064453125 924.7481689453125 512.1572875976562 924.2415161132812 511.650634765625 C 923.73486328125 511.14398193359375 923.4815063476562 510.5406494140625 923.4815063476562 509.84063720703125 L 923.4815063476562 466.3006591796875 L 903.04150390625 466.3006591796875 C 902.3414916992188 466.3006591796875 901.7381591796875 466.04730224609375 901.2315063476562 465.5406494140625 C 900.724853515625 465.0273132324219 900.4714965820312 464.4239807128906 900.4714965820312 463.73065185546875 L 900.4714965820312 448.420654296875 C 900.4714965820312 447.727294921875 900.724853515625 447.12396240234375 901.2315063476562 446.61065673828125 C 901.7381591796875 446.1039733886719 902.3414916992188 445.85064697265625 903.04150390625 445.85064697265625 ZM 1049.404052734375 509.46063232421875 C 1049.5306396484375 509.7139892578125 1049.593994140625 510.06396484375 1049.593994140625 510.5106506347656 C 1049.593994140625 510.9506530761719 1049.3873291015625 511.3773193359375 1048.9739990234375 511.7906494140625 C 1048.5606689453125 512.2039794921875 1048.0673828125 512.41064453125 1047.4940185546875 512.41064453125 L 1025.9140625 512.41064453125 C 1024.0140380859375 512.41064453125 1022.6840209960938 511.6173095703125 1021.9240112304688 510.0306396484375 L 1013.5540161132812 491.21063232421875 L 1005.5640258789062 491.21063232421875 L 1005.5640258789062 509.84063720703125 C 1005.5640258789062 510.5406494140625 1005.3106689453125 511.14398193359375 1004.8040161132812 511.650634765625 C 1004.29736328125 512.1572875976562 1003.6973266601562 512.41064453125 1003.0040283203125 512.41064453125 L 982.4639892578125 512.41064453125 C 981.7640380859375 512.41064453125 981.1607055664062 512.1572875976562 980.6539916992188 511.650634765625 C 980.1473388671875 511.14398193359375 979.89404296875 510.5406494140625 979.89404296875 509.84063720703125 L 979.89404296875 448.420654296875 C 979.89404296875 447.727294921875 980.1473388671875 447.12396240234375 980.6539916992188 446.61065673828125 C 981.1607055664062 446.1039733886719 981.7640380859375 445.85064697265625 982.4639892578125 445.85064697265625 L 1019.4540405273438 445.85064697265625 C 1028.134033203125 445.85064697265625 1035.0107421875 447.91064453125 1040.083984375 452.0306396484375 C 1045.150634765625 456.150634765625 1047.68408203125 461.7606506347656 1047.68408203125 468.86065673828125 C 1047.68408203125 477.48065185546875 1044.3572998046875 483.7239685058594 1037.7039794921875 487.59063720703125 L 1049.404052734375 509.46063232421875 M 1005.5640258789062 463.5406494140625 L 1005.5640258789062 473.6206359863281 L 1017.4540405273438 473.6206359863281 C 1018.8473510742188 473.6206359863281 1019.9240112304688 473.16064453125 1020.6840209960938 472.24066162109375 C 1021.4440307617188 471.3206481933594 1021.8240356445312 470.1639709472656 1021.8240356445312 468.7706298828125 C 1021.8240356445312 467.3773193359375 1021.460693359375 466.1573181152344 1020.7340087890625 465.11065673828125 C 1020.00732421875 464.06396484375 1018.9140014648438 463.5406494140625 1017.4540405273438 463.5406494140625 L 1005.5640258789062 463.5406494140625 ZM 1069.5120849609375 512.41064453125 L 1051.5421142578125 512.41064453125 C 1050.96875 512.41064453125 1050.478759765625 512.2039794921875 1050.0721435546875 511.7906494140625 C 1049.6588134765625 511.3773193359375 1049.4521484375 510.98065185546875 1049.4521484375 510.60064697265625 C 1049.4521484375 510.22064208984375 1049.482177734375 509.93731689453125 1049.5421142578125 509.7506408691406 L 1070.2720947265625 448.99066162109375 C 1070.845458984375 446.8973083496094 1072.2720947265625 445.85064697265625 1074.5521240234375 445.85064697265625 L 1100.982177734375 445.85064697265625 C 1103.2620849609375 445.85064697265625 1104.6888427734375 446.8973083496094 1105.2620849609375 448.99066162109375 L 1125.9921875 509.7506408691406 C 1126.0521240234375 509.93731689453125 1126.0821533203125 510.22064208984375 1126.0821533203125 510.60064697265625 C 1126.0821533203125 510.98065185546875 1125.87548828125 511.3773193359375 1125.462158203125 511.7906494140625 C 1125.055419921875 512.2039794921875 1124.5654296875 512.41064453125 1123.9921875 512.41064453125 L 1106.0220947265625 512.41064453125 C 1103.9954833984375 512.41064453125 1102.56884765625 511.333984375 1101.7421875 509.1806335449219 L 1099.3621826171875 502.5206298828125 L 1076.162109375 502.5206298828125 L 1073.7921142578125 509.1806335449219 C 1072.9654541015625 511.333984375 1071.538818359375 512.41064453125 1069.5120849609375 512.41064453125 M 1094.5120849609375 483.98065185546875 L 1087.7620849609375 464.2006530761719 L 1081.0120849609375 483.98065185546875 L 1094.5120849609375 483.98065185546875 ZM 1175.3646240234375 445.85064697265625 L 1193.0546875 445.85064697265625 C 1193.7479248046875 445.85064697265625 1194.351318359375 446.1039733886719 1194.8646240234375 446.61065673828125 C 1195.371337890625 447.12396240234375 1195.6246337890625 447.727294921875 1195.6246337890625 448.420654296875 L 1195.6246337890625 509.84063720703125 C 1195.6246337890625 510.5406494140625 1195.371337890625 511.14398193359375 1194.8646240234375 511.650634765625 C 1194.351318359375 512.1572875976562 1193.7479248046875 512.41064453125 1193.0546875 512.41064453125 L 1177.74462890625 512.41064453125 C 1176.224609375 512.41064453125 1174.9580078125 511.7439880371094 1173.9447021484375 510.41064453125 L 1153.214599609375 483.98065185546875 L 1153.214599609375 509.84063720703125 C 1153.214599609375 510.5406494140625 1152.9613037109375 511.14398193359375 1152.45458984375 511.650634765625 C 1151.947998046875 512.1572875976562 1151.3446044921875 512.41064453125 1150.6446533203125 512.41064453125 L 1132.964599609375 512.41064453125 C 1132.2646484375 512.41064453125 1131.6612548828125 512.1572875976562 1131.1546630859375 511.650634765625 C 1130.64794921875 511.14398193359375 1130.3946533203125 510.5406494140625 1130.3946533203125 509.84063720703125 L 1130.3946533203125 448.420654296875 C 1130.3946533203125 447.727294921875 1130.64794921875 447.12396240234375 1131.1546630859375 446.61065673828125 C 1131.6612548828125 446.1039733886719 1132.2646484375 445.85064697265625 1132.964599609375 445.85064697265625 L 1148.3646240234375 445.85064697265625 C 1149.8846435546875 445.85064697265625 1151.121337890625 446.4873046875 1152.0745849609375 447.7606506347656 L 1172.8046875 476.3706359863281 L 1172.8046875 448.420654296875 C 1172.8046875 447.727294921875 1173.0579833984375 447.12396240234375 1173.564697265625 446.61065673828125 C 1174.0712890625 446.1039733886719 1174.6712646484375 445.85064697265625 1175.3646240234375 445.85064697265625 ZM 1206.30712890625 445.85064697265625 L 1271.9071044921875 445.85064697265625 C 1272.607177734375 445.85064697265625 1273.21044921875 446.1039733886719 1273.7171630859375 446.61065673828125 C 1274.2237548828125 447.12396240234375 1274.4771728515625 447.727294921875 1274.4771728515625 448.420654296875 L 1274.4771728515625 463.73065185546875 C 1274.4771728515625 464.4239807128906 1274.2237548828125 465.0273132324219 1273.7171630859375 465.5406494140625 C 1273.21044921875 466.04730224609375 1272.607177734375 466.3006591796875 1271.9071044921875 466.3006591796875 L 1251.4671630859375 466.3006591796875 L 1251.4671630859375 509.84063720703125 C 1251.4671630859375 510.5406494140625 1251.2138671875 511.14398193359375 1250.7071533203125 511.650634765625 C 1250.200439453125 512.1572875976562 1249.59716796875 512.41064453125 1248.8970947265625 512.41064453125 L 1229.317138671875 512.41064453125 C 1228.6171875 512.41064453125 1228.0137939453125 512.1572875976562 1227.5072021484375 511.650634765625 C 1227.00048828125 511.14398193359375 1226.7471923828125 510.5406494140625 1226.7471923828125 509.84063720703125 L 1226.7471923828125 466.3006591796875 L 1206.30712890625 466.3006591796875 C 1205.607177734375 466.3006591796875 1205.0037841796875 466.04730224609375 1204.4971923828125 465.5406494140625 C 1203.990478515625 465.0273132324219 1203.7371826171875 464.4239807128906 1203.7371826171875 463.73065185546875 L 1203.7371826171875 448.420654296875 C 1203.7371826171875 447.727294921875 1203.990478515625 447.12396240234375 1204.4971923828125 446.61065673828125 C 1205.0037841796875 446.1039733886719 1205.607177734375 445.85064697265625 1206.30712890625 445.85064697265625 Z" transform="matrix(1, 0, 0, 1, -149.36981201171875, -445.8365783691406)" style="fill: rgb(255,255,255); white-space: pre; color: rgb(51, 51, 51);"/></svg>